<svg xmlns="http://www.w3.org/2000/svg" viewBox="0 0 484.02 625.99"><defs><style>.cls-1{fill:#0083bc;}</style></defs><g id="レイヤー_2" data-name="レイヤー 2"><g id="レイヤー_3" data-name="レイヤー 3"><path class="cls-1" d="M483,276.09c-1.33,0-4,1.89-7.7,5.79,0,0-7.8,8.06-22.81,17.43a184,184,0,0,1-30.24,15.16l-1.32.59c-1.57.56-5.55,10.93-8.94,23.14l-7.83,23.52-.21.61c-2.92,7.3-2.41,11.22.75,11.22,1.92,0,4.81-1.43,8.52-4.43l6-7.4L452.48,321l28.59-35C484.27,279.48,484.78,276.09,483,276.09Z"/><path class="cls-1" d="M409.22,137.54l2.76,8.29c3.39,12.15,7.37,22.65,8.94,23.14l1.32.6a185.45,185.45,0,0,1,30.24,15.19c15,9.37,22.81,17.41,22.81,17.41,3.74,3.9,6.37,5.79,7.7,5.79,1.79,0,1.28-3.38-1.92-9.86L452.48,163l-20.8-25.5-18.47-22.66a27.12,27.12,0,0,0-5.57-3.63,7.37,7.37,0,0,0-2.93-.78c-1.72,0-2.66,1.14-2.7,3.34a21.93,21.93,0,0,0,1.93,7.86Z"/><path class="cls-1" d="M281.85,8.74s13,12.58,25.15,36.48c2.55,5,5.07,10.54,7.42,16.54L315,63.1c.59,1.49,11,5.49,23.17,8.89l24.14,8.08.52.2A21.53,21.53,0,0,0,370.05,82c4.82,0,4.79-4.12-.84-11.19l-6.39-5.2-25-20.39L285.88,3C281.86,1,279,0,277.48,0,274.67,0,276,3.1,281.85,8.74Z"/><path class="cls-1" d="M114,82a22.33,22.33,0,0,0,7.73-1.93l16.94-5.68,7.18-2.4c12.19-3.4,22.62-7.4,23.21-8.89l.51-1.34c2.36-6,4.88-11.52,7.44-16.54,12.17-23.9,25.09-36.48,25.09-36.48C208,3.11,209.32,0,206.51,0c-1.55,0-4.37,1-8.4,3L146.23,45.22l-7.58,6.18L114.83,70.81C109.15,77.88,109.16,82,114,82Z"/><path class="cls-1" d="M359.85,155.84a22.11,22.11,0,0,0-4.34-.44c-10.08,0-16.89,7.64-15.65,18.7,0,0,.12,1.06.32,3,.95,9.34,3.72,38.85,3.72,64.92,0,31.52-4,67.95-4,67.95a17.9,17.9,0,0,0,2.62,12.2c2.76,4.08,7.41,6.52,13.1,6.52a22.24,22.24,0,0,0,4.27-.43l3-.73,21.1-5.2,7.47-1.84c12.06-3.67,23.54-16.91,25.63-29.3,0,0,2.22-14.33,3.24-32.31.31-5.38.5-11.1.5-16.86V240.4A371.5,371.5,0,0,0,417,192.8c-2.09-12.43-13.57-25.57-25.63-29.22l-7.47-1.83-21.1-5.18Z"/><path class="cls-1" d="M163.6,92.6l-5.23,21.21-2.54,10.33c-1.05,5.24-.18,9.89,2.12,13.4,2.75,4.19,7.54,6.76,13.53,6.76a22.67,22.67,0,0,0,2.57-.15s1.51-.17,4.17-.43c10.44-1,38.66-3.57,63.78-3.57,31.5,0,68,4,68,4a22.85,22.85,0,0,0,2.58.15,16.42,16.42,0,0,0,10.67-3.58,14.36,14.36,0,0,0,2.84-3.18c2.28-3.51,3.13-8.16,2.07-13.4l-2.53-10.33-5.2-21.21C316.77,80.52,303.6,69.06,291.17,67c0,0-13.77-2.16-31.22-3.23-5.71-.34-11.81-.58-17.95-.58h-.5A360.58,360.58,0,0,0,192.87,67C180.35,69.06,167.19,80.52,163.6,92.6Z"/><path class="cls-1" d="M185.67,454a184.59,184.59,0,0,1-16.12-31.72l-.51-1.42c-.59-1.42-11-5.51-23.21-8.82l-7.18-2.4L121.71,404a25.64,25.64,0,0,0-6.79-1.91,8.63,8.63,0,0,0-1-.05c-3,0-4.09,1.59-3.13,4.51a22.84,22.84,0,0,0,4,6.64l23.82,19.42L164.9,454l33.21,27.06c4,2,6.87,2.93,8.42,2.93,2.79,0,1.44-3.06-4.45-8.73C202.08,475.29,194.6,468,185.67,454Z"/><path class="cls-1" d="M46.36,339.14l18.42,22.58,6,7.4c3.68,3,6.58,4.43,8.49,4.43,3.17,0,3.67-3.92.71-11.22l-.21-.61L72,338.2c-3.38-12.21-7.39-22.58-8.84-23.14l-1.37-.59c-5.55-2.18-10.68-4.5-15.39-6.85-24.66-12.34-37.6-25.74-37.6-25.74C5,278,2.37,276.09,1,276.09c-1.8,0-1.29,3.39,1.94,9.86Z"/><path class="cls-1" d="M369.21,413.21c5.61-7.07,5.65-11.15.89-11.15a21.55,21.55,0,0,0-7.28,1.75l-.52.21-24.14,8.05c-12.13,3.31-22.58,7.4-23.17,8.82l-.57,1.42A183.2,183.2,0,0,1,298.31,454c-8.95,14-16.46,21.26-16.46,21.26C276,481,274.68,484,277.46,484c1.56,0,4.38-.95,8.42-2.93L319.11,454l43.71-35.61Z"/><path class="cls-1" d="M1,208c1.34,0,4-1.89,7.73-5.79,0,0,12.94-13.36,37.6-25.73,4.71-2.36,9.84-4.68,15.39-6.87l1.37-.6c1.45-.49,5.46-11,8.84-23.14l2.77-8.29L80,121.67c3-7.27,2.46-11.2-.72-11.2-1.92,0-4.8,1.43-8.48,4.41L52.35,137.54l-6,7.35L3,198.1C-.26,204.58-.77,208,1,208Z"/><path class="cls-1" d="M242,420.82c6.14,0,12.24-.23,17.95-.58,17.45-1.08,31.22-3.25,31.22-3.25,12.43-1.94,25.6-13.45,29.26-25.6l1.45-5.91,5.81-23.76.47-1.93c1.43-7-.6-12.9-4.91-16.45a16.73,16.73,0,0,0-10.8-3.58,23.08,23.08,0,0,0-2.45.14s-36.5,4-68,4c-25.12,0-53.34-2.55-63.78-3.59l-4.17-.43a22.79,22.79,0,0,0-2.45-.14c-11.07,0-18.09,8.54-15.77,20l.47,1.93,5.85,23.76,1.45,5.91c3.59,12.15,16.75,23.66,29.27,25.6a358.69,358.69,0,0,0,48.63,3.83Z"/><path class="cls-1" d="M67,192.8A361.14,361.14,0,0,0,63.22,242,359.41,359.41,0,0,0,67,291.18c1.92,12.39,13.45,25.63,25.59,29.3l31.54,7.77c12.38,2.46,21.4-5.8,20-18.29,0,0-4.1-36.43-4.1-67.95s4.1-67.91,4.1-67.91c1.38-12.58-7.64-20.75-20-18.26l-31.54,7.74C80.49,167.23,69,180.37,67,192.8Z"/><path d="M15.4,554.3v57.08H49.53v13H0v-70Z"/><path d="M118,554.29v13H81v15H115v12H81v17.17h37.76v12.94H65.62v-70Z"/><path d="M133.41,575a35,35,0,0,1,6.77-11.72A31,31,0,0,1,151,555.47a38.38,38.38,0,0,1,29,0,31,31,0,0,1,10.79,7.85A35,35,0,0,1,197.56,575a43.72,43.72,0,0,1,2.35,14.56,42.26,42.26,0,0,1-2.35,14.27,34.11,34.11,0,0,1-6.77,11.53A31.17,31.17,0,0,1,180,623.1a39,39,0,0,1-29,0,31.09,31.09,0,0,1-10.84-7.7,34.11,34.11,0,0,1-6.77-11.53,42.26,42.26,0,0,1-2.35-14.27A43.72,43.72,0,0,1,133.41,575Zm14.08,23.14a23.12,23.12,0,0,0,3.28,7.51,16.92,16.92,0,0,0,5.89,5.34,20.38,20.38,0,0,0,17.65,0,16.92,16.92,0,0,0,5.89-5.34,23.12,23.12,0,0,0,3.28-7.51,35.42,35.42,0,0,0,1-8.58,38.07,38.07,0,0,0-1-8.92,23.49,23.49,0,0,0-3.28-7.7,16.7,16.7,0,0,0-5.89-5.4,20.38,20.38,0,0,0-17.65,0,16.7,16.7,0,0,0-5.89,5.4,23.49,23.49,0,0,0-3.28,7.7,38.07,38.07,0,0,0-1,8.92A35.42,35.42,0,0,0,147.49,598.18Z"/><path d="M231,554.31l29.23,47h.19v-47h14.42v70h-15.4l-29.13-46.89h-.19v46.89H215.7v-70Z"/><path d="M303.06,612.24v12.09H290.74V612.24Z"/><path d="M364.46,619.08q-7.95,6.92-22,6.91-14.22,0-22-6.86t-7.8-21.19V554.39h15.4v43.55a31.41,31.41,0,0,0,.49,5.59,10.85,10.85,0,0,0,6.43,8.29,17.76,17.76,0,0,0,7.5,1.32q8.24,0,11.38-3.68T357,597.94V554.39h15.4v43.55Q372.4,612.16,364.46,619.08Z"/><path d="M394.26,612.24v12.09H381.94V612.24Z"/><path d="M484,612.24v12.09H471.7V612.24Z"/><path d="M436.69,554.31a36,36,0,0,1,12.6,2.16,27.28,27.28,0,0,1,10.11,6.47,30,30,0,0,1,6.67,10.79,43.65,43.65,0,0,1,2.4,15.2,48.73,48.73,0,0,1-2,14.12,31,31,0,0,1-5.94,11.18,27.78,27.78,0,0,1-9.9,7.41,33.53,33.53,0,0,1-14,2.7H406.48v-70Zm-1.08,57.08a19.85,19.85,0,0,0,6.48-1.08,14.28,14.28,0,0,0,5.59-3.58,18.06,18.06,0,0,0,3.92-6.52,28.72,28.72,0,0,0,1.47-9.81,40.6,40.6,0,0,0-1-9.56,19.11,19.11,0,0,0-3.38-7.31,15.11,15.11,0,0,0-6.23-4.66,24.86,24.86,0,0,0-9.56-1.62h-11v44.14Z"/></g></g></svg>