<svg xmlns="http://www.w3.org/2000/svg" width="10.96" height="11.027" viewBox="0 0 10.96 11.027">
  <g id="icon_blank" transform="translate(-565.569 -4352.81)">
    <g id="パス_361" data-name="パス 361" transform="translate(0.04 -0.027)" fill="none">
      <path d="M565.529,4352.837h8v4.045H569.49v3.955h-3.961Z" stroke="none"/>
      <path d="M 566.529296875 4353.8369140625 L 566.529296875 4359.8369140625 L 568.490234375 4359.8369140625 L 568.490234375 4355.8818359375 L 572.529296875 4355.8818359375 L 572.529296875 4353.8369140625 L 566.529296875 4353.8369140625 M 565.529296875 4352.8369140625 L 573.529296875 4352.8369140625 L 573.529296875 4356.8818359375 L 569.490234375 4356.8818359375 L 569.490234375 4360.8369140625 L 565.529296875 4360.8369140625 L 565.529296875 4352.8369140625 Z" stroke="none" fill="#fff"/>
    </g>
    <g id="パス_362" data-name="パス 362" transform="translate(3 3)" fill="none">
      <path d="M565.529,4352.837h8v8h-8Z" stroke="none"/>
      <path d="M 566.529296875 4353.8369140625 L 566.529296875 4359.8369140625 L 572.529296875 4359.8369140625 L 572.529296875 4353.8369140625 L 566.529296875 4353.8369140625 M 565.529296875 4352.8369140625 L 573.529296875 4352.8369140625 L 573.529296875 4360.8369140625 L 565.529296875 4360.8369140625 L 565.529296875 4352.8369140625 Z" stroke="none" fill="#fff"/>
    </g>
  </g>
</svg>
