<svg xmlns="http://www.w3.org/2000/svg" width="40.516" height="40.514" viewBox="0 0 40.516 40.514">
  <g id="グループ_378" data-name="グループ 378" transform="translate(-1510.499 -570.182)">
    <g id="グループ_376" data-name="グループ 376" transform="translate(1515.03 581.314)">
      <path id="パス_296" data-name="パス 296" d="M1543.977,586.8s-.118-.924-.171-1.308a1.5,1.5,0,0,0-.177-.562c-.338-.6-1.376-1.648-4.485-1.648-3.632,0-4.522-.687-5.466-1.415l-.042-.033-1.02,1.718a.272.272,0,0,1-.371.1l-.353-.21a.27.27,0,0,1-.094-.371l1.071-1.8c-.357-.257-.805-.577-1.3-.919l-1.105,1.861a.271.271,0,0,1-.371.1l-.357-.21a.273.273,0,0,1-.09-.371l1.138-1.92c-.438-.294-.886-.595-1.325-.871l-1.152,1.933a.266.266,0,0,1-.366.1l-.358-.21a.271.271,0,0,1-.095-.371l1.157-1.947a7.186,7.186,0,0,0-1.705-.829.458.458,0,0,0-.443.138,4.4,4.4,0,0,0-.371.476,4.94,4.94,0,0,1-4.257,2.452,6.1,6.1,0,0,1-4.323-1.4.477.477,0,0,0-.792.138,18.269,18.269,0,0,0-1.284,4.871,5.646,5.646,0,0,0,3.485.981,3.994,3.994,0,0,0,3.48-2.061,5.662,5.662,0,0,1,.452-.572,1.435,1.435,0,0,1,1.334-.415,6.737,6.737,0,0,1,1.995.943c.157.09,2.839,1.848,2.981,1.948.5.347.952.672,1.31.928l.838.619c.762.586,1.428,1.1,3.952,1.2.009,0,.013,0,.024,0a21.183,21.183,0,0,0,7.609-1.714l.1.781a.483.483,0,0,1-.281.514,16.132,16.132,0,0,1-3.076,1.005,4.3,4.3,0,0,1,1.143.691,15.437,15.437,0,0,0,2.328-.825A1.444,1.444,0,0,0,1543.977,586.8Z" transform="translate(-1512.534 -577.593)" fill="#333"/>
      <path id="パス_297" data-name="パス 297" d="M1541.871,589.174a1.529,1.529,0,0,0-.178-.56c-.338-.6-1.374-1.648-4.485-1.648-3.63,0-4.521-.688-5.464-1.415l-.042-.033-1.021,1.72a.27.27,0,0,1-.371.095l-.353-.21a.268.268,0,0,1-.095-.369l1.07-1.8c-.356-.257-.8-.575-1.3-.919l-1.108,1.864a.268.268,0,0,1-.37.095l-.354-.21a.272.272,0,0,1-.095-.371l1.14-1.917c-.438-.3-.888-.6-1.325-.874l-1.15,1.935a.271.271,0,0,1-.37.094l-.355-.21a.271.271,0,0,1-.093-.371l1.157-1.948a7.283,7.283,0,0,0-1.7-.829.476.476,0,0,0-.446.14,5.057,5.057,0,0,0-.371.476,4.938,4.938,0,0,1-4.255,2.453,6.086,6.086,0,0,1-4.323-1.406.477.477,0,0,0-.792.137c-.221.529-2.062,5.088-.948,6.974l-.013,3.1a.475.475,0,0,0,.476.478s12.242-.105,14.7.162a31.3,31.3,0,0,0,3.357.186,20.059,20.059,0,0,0,8.817-2.005,1.44,1.44,0,0,0,.835-1.505Zm-1.057,1.945a19.082,19.082,0,0,1-8.425,1.921c-1.057,0-2.148-.1-3.254-.18-3.728-.278-14.323-.168-14.323-.168l.01-2.265c1.635.035,7.3.207,14.366.979A22.812,22.812,0,0,0,1541,589.823l.1.781A.491.491,0,0,1,1540.813,591.12Z" transform="translate(-1513.515 -575.743)" fill="#333"/>
    </g>
    <g id="グループ_377" data-name="グループ 377" transform="translate(1510.499 570.182)">
      <path id="パス_298" data-name="パス 298" d="M1536.79,589.365h-1.05V573.75h-17.094v11.542h-1.05V573.226a.524.524,0,0,1,.524-.526h18.144a.524.524,0,0,1,.525.526Z" transform="translate(-1506.935 -568.918)" fill="#333"/>
      <path id="パス_299" data-name="パス 299" d="M1536.265,597.607h-18.144a.525.525,0,0,1-.524-.526v-7.776h1.05v7.252h17.094v-7.839h1.05v8.364A.525.525,0,0,1,1536.265,597.607Z" transform="translate(-1506.935 -560.875)" fill="#333"/>
      <path id="パス_300" data-name="パス 300" d="M1530.025,590.89" transform="translate(-1500.696 -559.785)" fill="none" stroke="#333" stroke-linejoin="round" stroke-width="0.7"/>
      <path id="パス_301" data-name="パス 301" d="M1530.025,583.795" transform="translate(-1500.696 -563.347)" fill="none" stroke="#333" stroke-linejoin="round" stroke-width="0.7"/>
      <path id="パス_302" data-name="パス 302" d="M1537.122,570.531" transform="translate(-1497.132 -570.007)" fill="none" stroke="#333" stroke-linejoin="round" stroke-width="0.7"/>
      <path id="パス_303" data-name="パス 303" d="M1510.849,570.531" transform="translate(-1510.323 -570.007)" fill="none" stroke="#333" stroke-linejoin="round" stroke-width="0.7"/>
      <path id="パス_304" data-name="パス 304" d="M1511.025,610.7a.524.524,0,0,1-.526-.524V570.706a.525.525,0,0,1,1.05,0v39.466A.524.524,0,0,1,1511.025,610.7Z" transform="translate(-1510.499 -570.182)" fill="#333"/>
      <path id="パス_305" data-name="パス 305" d="M1537.3,610.7a.525.525,0,0,1-.526-.524V570.706a.526.526,0,0,1,1.052,0v39.466A.525.525,0,0,1,1537.3,610.7Z" transform="translate(-1497.308 -570.182)" fill="#333"/>
      <rect id="長方形_150" data-name="長方形 150" width="1.052" height="11.313" transform="matrix(0.334, -0.942, 0.942, 0.334, 0.349, 1.02)" fill="#333"/>
      <rect id="長方形_151" data-name="長方形 151" width="11.311" height="1.052" transform="translate(29.154 3.812) rotate(-19.546)" fill="#333"/>
      <rect id="長方形_152" data-name="長方形 152" width="1.052" height="11.311" transform="matrix(0.334, -0.942, 0.942, 0.334, 29.154, 36.702)" fill="#333"/>
      <rect id="長方形_153" data-name="長方形 153" width="11.313" height="1.052" transform="translate(0.349 39.494) rotate(-19.546)" fill="#333"/>
    </g>
  </g>
</svg>
