<svg xmlns="http://www.w3.org/2000/svg" width="40.047" height="40.046" viewBox="0 0 40.047 40.046">
  <g id="グループ_375" data-name="グループ 375" transform="translate(-1473.321 -570.182)">
    <path id="パス_280" data-name="パス 280" d="M1498.872,605.269h-17.934a.519.519,0,0,1-.52-.52V573.22a.518.518,0,0,1,.52-.52h17.934a.518.518,0,0,1,.518.52v31.53A.519.519,0,0,1,1498.872,605.269Zm-17.416-1.038h16.9V573.738h-16.9Z" transform="translate(3.44 1.221)" fill="#333"/>
    <g id="グループ_374" data-name="グループ 374" transform="translate(1477.265 577.793)">
      <g id="グループ_366" data-name="グループ 366" transform="translate(6.886)">
        <g id="グループ_365" data-name="グループ 365">
          <path id="パス_281" data-name="パス 281" d="M1489.727,580.31a.519.519,0,0,1-.52-.52v-1.32a.519.519,0,0,1,.52-.52.8.8,0,1,0-.8-.8.519.519,0,0,1-1.038,0,1.84,1.84,0,1,1,2.359,1.767v.876A.519.519,0,0,1,1489.727,580.31Z" transform="translate(-1477.09 -575.308)" fill="#333"/>
          <path id="パス_282" data-name="パス 282" d="M1495.029,581.6a.516.516,0,0,1-.253-.065l-4.4-2.445-3.057,1.7a.519.519,0,1,1-.5-.907l3.308-1.841a.526.526,0,0,1,.5,0l4.653,2.588a.519.519,0,0,1-.252.973Z" transform="translate(-1477.739 -574.014)" fill="#333"/>
          <g id="グループ_364" data-name="グループ 364" transform="translate(0 5.943)">
            <path id="パス_283" data-name="パス 283" d="M1497.855,579.811a5.3,5.3,0,0,1-4.846,3.084c-2.086,0-11.894,5.286-11.894,5.286l3.084,3.084,2.2-2.2v8.369h13.217v-8.369l2.2,2.2,3.084-3.084-3.084-6.168Z" transform="translate(-1480.373 -579.068)" fill="#333"/>
            <path id="パス_284" data-name="パス 284" d="M1499.86,598.417h-13.215a.742.742,0,0,1-.742-.742V591.1l-.935.935a.743.743,0,0,1-1.05,0l-3.084-3.084a.741.741,0,0,1,.172-1.179c1.666-.9,10.083-5.375,12.246-5.375a4.58,4.58,0,0,0,4.171-2.649.736.736,0,0,1,.442-.4.748.748,0,0,1,.594.055l3.965,2.2a.754.754,0,0,1,.3.318l3.083,6.169a.739.739,0,0,1-.14.857l-3.084,3.084a.743.743,0,0,1-1.049,0l-.935-.935v6.577A.742.742,0,0,1,1499.86,598.417Zm-12.473-1.485h11.731V589.3a.743.743,0,0,1,1.268-.526l1.677,1.678,2.18-2.18-2.741-5.484-3.11-1.728a6.081,6.081,0,0,1-5.14,2.815c-1.278,0-6.877,2.727-10.66,4.727l1.85,1.85,1.678-1.678a.743.743,0,0,1,1.268.526Z" transform="translate(-1480.615 -579.311)" fill="#333"/>
          </g>
        </g>
      </g>
      <g id="グループ_370" data-name="グループ 370" transform="translate(11.26 4.701)">
        <g id="グループ_369" data-name="グループ 369">
          <g id="グループ_367" data-name="グループ 367" transform="translate(0 3.58)">
            <path id="パス_285" data-name="パス 285" d="M1484.563,581.889c.034,0,.034,14.537.034,14.537v-14.54C1484.585,581.886,1484.551,581.889,1484.563,581.889Z" transform="translate(-1483.077 -580.401)" fill="#fff"/>
            <path id="パス_286" data-name="パス 286" d="M1485.081,598.4a1.484,1.484,0,0,1-1.485-1.485v-.025c0-5.418-.008-13.6-.03-14.383a1.5,1.5,0,0,1,.063-.576,1.483,1.483,0,0,1,1.25-1.027,1.509,1.509,0,0,1,1.687,1.471v14.54A1.484,1.484,0,0,1,1485.081,598.4Z" transform="translate(-1483.561 -580.886)" fill="#fff"/>
          </g>
          <g id="グループ_368" data-name="グループ 368" transform="translate(0.035)">
            <path id="パス_287" data-name="パス 287" d="M1493.361,582.176l-4.464-2.7c-.861,1.887-2.24,3.566-4.312,3.58v14.54h6.573v-8.369l2.2,2.2,3.084-3.084Z" transform="translate(-1483.1 -577.989)" fill="#fff"/>
            <path id="パス_288" data-name="パス 288" d="M1491.644,599.564h-6.574a1.484,1.484,0,0,1-1.485-1.485V583.54a1.485,1.485,0,0,1,1.476-1.485c1.437-.009,2.408-1.479,2.969-2.711a1.487,1.487,0,0,1,.913-.8,1.472,1.472,0,0,1,1.207.147l4.465,2.7a1.493,1.493,0,0,1,.56.607l3.083,6.167a1.483,1.483,0,0,1-.279,1.714l-3.083,3.084a1.483,1.483,0,0,1-1.767.251v4.867A1.485,1.485,0,0,1,1491.644,599.564Zm-5.09-2.969h3.6V589.71a1.484,1.484,0,0,1,2.534-1.05l1.152,1.152,1.277-1.277-2.413-4.827-2.769-1.675a6.2,6.2,0,0,1-3.387,2.767Z" transform="translate(-1483.585 -578.474)" fill="#fff"/>
          </g>
        </g>
      </g>
      <g id="グループ_373" data-name="グループ 373">
        <g id="グループ_372" data-name="グループ 372">
          <path id="パス_289" data-name="パス 289" d="M1481.524,582.9a.519.519,0,0,1-.251-.973l4.386-2.439V578.47a.518.518,0,0,1,.518-.52.8.8,0,1,0-.8-.8.519.519,0,0,1-1.038,0,1.841,1.841,0,1,1,2.361,1.767v.57l4.384,2.439a.515.515,0,0,1,.267.454.509.509,0,0,1-.065.251.518.518,0,0,1-.707.2l-4.4-2.445-4.4,2.445A.511.511,0,0,1,1481.524,582.9Z" transform="translate(-1473.54 -575.308)" fill="#333"/>
          <g id="グループ_371" data-name="グループ 371" transform="translate(0 5.942)">
            <path id="パス_290" data-name="パス 290" d="M1493.218,579.811a5.35,5.35,0,0,1-9.692,0l-3.964,2.2-3.084,6.168,3.084,3.084,2.2-2.2v8.369h13.216v-8.369l2.2,2.2,3.084-3.084-3.084-6.168Z" transform="translate(-1475.734 -579.067)" fill="#333"/>
            <path id="パス_291" data-name="パス 291" d="M1495.222,598.417h-13.216a.742.742,0,0,1-.742-.742V591.1l-.935.935a.743.743,0,0,1-1.05,0l-3.084-3.084a.743.743,0,0,1-.14-.857l3.084-6.169a.755.755,0,0,1,.3-.318l3.963-2.2a.747.747,0,0,1,1.038.342,4.607,4.607,0,0,0,8.341,0,.745.745,0,0,1,1.036-.342l3.964,2.2a.753.753,0,0,1,.3.318l3.084,6.169a.741.741,0,0,1-.138.857l-3.085,3.084a.743.743,0,0,1-1.05,0l-.935-.935v6.577A.742.742,0,0,1,1495.222,598.417Zm-12.473-1.485h11.731v-7.627a.743.743,0,0,1,1.268-.526l1.678,1.678,2.181-2.18-2.742-5.485-3.109-1.728a6.1,6.1,0,0,1-10.282,0l-3.108,1.728-2.742,5.485,2.181,2.18,1.678-1.678a.742.742,0,0,1,1.266.526Z" transform="translate(-1475.977 -579.31)" fill="#333"/>
          </g>
        </g>
      </g>
    </g>
    <path id="パス_292" data-name="パス 292" d="M1499.944,570.531" transform="translate(12.905 0.169)" fill="none" stroke="#333" stroke-linejoin="round" stroke-width="0.7"/>
    <path id="パス_293" data-name="パス 293" d="M1473.671,570.531" transform="translate(0.17 0.169)" fill="none" stroke="#333" stroke-linejoin="round" stroke-width="0.7"/>
    <path id="パス_294" data-name="パス 294" d="M1473.841,610.228a.519.519,0,0,1-.52-.518V570.7a.52.52,0,0,1,1.039,0v39.01A.519.519,0,0,1,1473.841,610.228Z" transform="translate(0)" fill="#333"/>
    <path id="パス_295" data-name="パス 295" d="M1500.113,610.228a.518.518,0,0,1-.518-.518V570.7a.519.519,0,0,1,1.038,0v39.01A.518.518,0,0,1,1500.113,610.228Z" transform="translate(12.735)" fill="#333"/>
    <rect id="長方形_146" data-name="長方形 146" width="1.04" height="11.18" transform="matrix(0.334, -0.942, 0.942, 0.334, 1473.667, 571.19)" fill="#333"/>
    <rect id="長方形_147" data-name="長方形 147" width="11.182" height="1.04" transform="translate(1502.138 573.951) rotate(-19.546)" fill="#333"/>
    <rect id="長方形_148" data-name="長方形 148" width="1.04" height="11.182" transform="matrix(0.334, -0.942, 0.942, 0.334, 1502.137, 606.46)" fill="#333"/>
    <rect id="長方形_149" data-name="長方形 149" width="11.18" height="1.04" transform="translate(1473.667 609.22) rotate(-19.546)" fill="#333"/>
  </g>
</svg>
