<svg xmlns="http://www.w3.org/2000/svg" width="29.106" height="34.275" viewBox="0 0 29.106 34.275">
  <g id="グループ_293" data-name="グループ 293" transform="translate(-1309.131 -532.145)">
    <g id="グループ_291" data-name="グループ 291" transform="translate(1309.131 532.145)">
      <path id="パス_186" data-name="パス 186" d="M1324.04,542.192c0,5.709,8.058,10.235,8.058,21.489v1.47l-15.547.143h-.032a23.394,23.394,0,0,0,0-6.448c-.589-2.945-1.613-3.224-1.613-8.058,0-2.686,1.41-4.835,1.41-6.517s.2-3.69-3.558-3.69-3.224-4.3-3.224-4.3l4.3-.538a3.906,3.906,0,0,1,3.759-3.224h2.15c1.611,0,5.372,2.686,5.908,7.521.239,2.137-1.611,2.686-3.222,2.686-3.224,0-3.224-6.446-3.224-6.446" transform="translate(-1308.757 -531.77)" fill="#333"/>
      <path id="パス_187" data-name="パス 187" d="M1316.925,566.42a.785.785,0,0,1-.581-.257.765.765,0,0,1-.2-.6,22.8,22.8,0,0,0,.008-6.195,14.505,14.505,0,0,0-.671-2.276,14.447,14.447,0,0,1-.956-5.93,13.184,13.184,0,0,1,.864-4.243,8.138,8.138,0,0,0,.546-2.274v-.251a2.918,2.918,0,0,0-.446-2.079,3.393,3.393,0,0,0-2.362-.609,3.723,3.723,0,0,1-2.931-1.2,5.551,5.551,0,0,1-1.037-3.945.748.748,0,0,1,.651-.653l3.792-.474a4.51,4.51,0,0,1,4.361-3.293h2.15c1.95,0,6.067,2.891,6.657,8.192a2.905,2.905,0,0,1-.663,2.356,2.994,2.994,0,0,1-.886.669c.277,1.882,1.48,3.754,2.845,5.88,2.3,3.574,5.153,8.023,5.153,14.815v1.47a.75.75,0,0,1-.743.753l-15.548.141Zm-6.288-29.1a3.5,3.5,0,0,0,.7,2.2,2.263,2.263,0,0,0,1.8.683,4.656,4.656,0,0,1,3.429,1.053,4.16,4.16,0,0,1,.884,3.146l0,.243a9.194,9.194,0,0,1-.62,2.744,12.007,12.007,0,0,0-.791,3.773,13.055,13.055,0,0,0,.864,5.416,15.559,15.559,0,0,1,.733,2.5,21.811,21.811,0,0,1,.109,5.834l13.98-.129v-.725c0-6.352-2.61-10.416-4.914-14-1.416-2.2-2.67-4.156-3.034-6.26a7.319,7.319,0,0,1-.968.064c-3.931,0-3.976-6.906-3.976-7.2l1.5,0c0,1.479.46,5.7,2.473,5.7a3,3,0,0,0,2.186-.665,1.452,1.452,0,0,0,.289-1.187c-.5-4.5-4.03-6.852-5.161-6.852h-2.15a3.111,3.111,0,0,0-3.019,2.6.75.75,0,0,1-.647.613Z" transform="translate(-1309.131 -532.145)" fill="#333"/>
    </g>
    <path id="パス_188" data-name="パス 188" d="M1316.28,539.919a8.2,8.2,0,0,1-2.375-.221.524.524,0,0,1-.323-.671.532.532,0,0,1,.661-.327,8.121,8.121,0,0,0,2.037.165,4.137,4.137,0,0,0,1.916-.3.535.535,0,0,1,.723.159.52.52,0,0,1-.135.715A4.567,4.567,0,0,1,1316.28,539.919Z" transform="translate(4.382 6.288)" fill="#fff"/>
    <g id="グループ_292" data-name="グループ 292" transform="translate(1330.816 555.299)">
      <path id="パス_189" data-name="パス 189" d="M1321.524,554.749a1.5,1.5,0,0,1-.048-3.007,3.412,3.412,0,0,0,2.336-1.229c.734-1.01.818-2.686.243-4.851a1.5,1.5,0,0,1,2.907-.773c.834,3.14.581,5.643-.753,7.437a6.445,6.445,0,0,1-4.634,2.419Z" transform="translate(-1320.022 -543.773)" fill="#333"/>
    </g>
  </g>
</svg>
