<svg xmlns="http://www.w3.org/2000/svg" width="45.179" height="33.121" viewBox="0 0 45.179 33.121">
  <path id="パス_142" data-name="パス 142" d="M1223.556,550.2l-5.814,10.485a1.5,1.5,0,0,1-2.031.582L1192.148,548.2a1.5,1.5,0,0,1-.582-2.031l5.814-10.485a1.493,1.493,0,0,1,2.031-.582l23.563,13.064A1.494,1.494,0,0,1,1223.556,550.2Zm5.835,3.626-3.437-1.2a.953.953,0,0,0-1.164.408l-4.019,7.247a.951.951,0,0,0,.269,1.2l2.844,2.277a.982.982,0,0,0,1.476-.235l4.612-8.32A.981.981,0,0,0,1229.391,553.825Zm-42.127.42h-2.359v13.792h2.359a1.2,1.2,0,0,0,1.2-1.2V555.449A1.2,1.2,0,0,0,1187.265,554.245Zm15.529-.141c-.71,1.6-.885,1.944-1.524,3.229a2.875,2.875,0,0,1-2.448,1.9h-10.353v2.957l10.62-.014c3.113.014,3.884-1.221,4.555-2.725.584-1.312,1.031-2.314,1.739-3.911h0Z" transform="translate(-1184.905 -534.916)" fill="#333"/>
</svg>
