<svg xmlns="http://www.w3.org/2000/svg" width="32.789" height="41.645" viewBox="0 0 32.789 41.645">
  <g id="グループ_387" data-name="グループ 387" transform="translate(-1327.178 -571.748)">
    <g id="グループ_381" data-name="グループ 381" transform="translate(1328.109 582.74)">
      <path id="パス_313" data-name="パス 313" d="M1337.213,583.921a.634.634,0,0,1-.634-.636v-1.617a.634.634,0,0,1,.634-.636.982.982,0,1,0-.981-.981.635.635,0,1,1-1.27,0,2.251,2.251,0,1,1,2.887,2.162v1.072A.634.634,0,0,1,1337.213,583.921Z" transform="translate(-1321.751 -577.798)" fill="#333"/>
      <path id="パス_314" data-name="パス 314" d="M1344.738,584.9a.613.613,0,0,1-.309-.08l-5.383-2.991-5.385,2.991a.635.635,0,0,1-.618-1.11l5.694-3.163a.633.633,0,0,1,.618,0l5.692,3.163a.635.635,0,0,1-.309,1.19Z" transform="translate(-1323.584 -575.616)" fill="#333"/>
      <g id="グループ_380" data-name="グループ 380" transform="translate(0 7.273)">
        <path id="パス_315" data-name="パス 315" d="M1348.675,582.3a6.546,6.546,0,0,1-11.86,0L1331.964,585l-3.774,7.547,3.774,3.774,2.7-2.694v10.241h16.172V593.623l2.695,2.694,3.774-3.774L1353.526,585Z" transform="translate(-1327.282 -581.392)" fill="#333"/>
        <path id="パス_316" data-name="パス 316" d="M1351.238,605.182h-16.17a.909.909,0,0,1-.908-.908v-8.05l-1.146,1.146a.908.908,0,0,1-.641.267h0a.909.909,0,0,1-.643-.267l-3.772-3.773a.91.91,0,0,1-.171-1.048l3.772-7.547a.921.921,0,0,1,.371-.389l4.853-2.7a.912.912,0,0,1,1.27.42,5.637,5.637,0,0,0,10.205,0,.9.9,0,0,1,.543-.487.91.91,0,0,1,.725.067l4.853,2.7a.91.91,0,0,1,.371.389l3.772,7.547a.907.907,0,0,1-.171,1.048l-3.772,3.773a.933.933,0,0,1-1.284,0l-1.146-1.146v8.05A.908.908,0,0,1,1351.238,605.182Zm-15.261-1.817h14.353V594.03a.909.909,0,0,1,.561-.839.919.919,0,0,1,.99.2l2.055,2.055,2.667-2.669-3.354-6.712-3.807-2.115a7.465,7.465,0,0,1-12.58,0l-3.8,2.115-3.354,6.712,2.667,2.669,2.053-2.055a.908.908,0,0,1,1.552.641Z" transform="translate(-1327.69 -581.801)" fill="#333"/>
      </g>
    </g>
    <g id="グループ_386" data-name="グループ 386" transform="translate(1327.178 571.748)">
      <path id="パス_317" data-name="パス 317" d="M1327.177,571.748h32.789l-2.4,9.222h-27.979Z" transform="translate(-1327.177 -571.748)" fill="#333"/>
      <g id="グループ_385" data-name="グループ 385" transform="translate(5.756 2.247)">
        <g id="グループ_382" data-name="グループ 382" transform="translate(1.504 4.001)">
          <line id="線_94" data-name="線 94" x1="17.54" transform="translate(0.364 0.363)" fill="#333"/>
          <path id="パス_318" data-name="パス 318" d="M1349.077,575.914h-17.54a.363.363,0,0,1,0-.727h17.54a.363.363,0,1,1,0,.727Z" transform="translate(-1331.174 -575.187)" fill="#fff"/>
        </g>
        <g id="グループ_383" data-name="グループ 383" transform="translate(0.587 2)">
          <line id="線_95" data-name="線 95" x1="19.377" transform="translate(0.363 0.364)" fill="#333"/>
          <path id="パス_319" data-name="パス 319" d="M1350.407,574.813h-19.375a.363.363,0,1,1,0-.727h19.375a.363.363,0,1,1,0,.727Z" transform="translate(-1330.669 -574.086)" fill="#fff"/>
        </g>
        <g id="グループ_384" data-name="グループ 384">
          <line id="線_96" data-name="線 96" x1="20.551" transform="translate(0.363 0.364)" fill="#333"/>
          <path id="パス_320" data-name="パス 320" d="M1351.258,573.714h-20.548a.364.364,0,0,1,0-.729h20.548a.364.364,0,1,1,0,.729Z" transform="translate(-1330.346 -572.985)" fill="#fff"/>
        </g>
      </g>
    </g>
    <path id="パス_321" data-name="パス 321" d="M1331.661,584.277a.635.635,0,0,1-.36-1.161c.222-.153.854-.7.854-1.183a1.576,1.576,0,0,0-.432-.821,2.609,2.609,0,0,1-.692-1.592,2.639,2.639,0,0,1,1.468-2.089.636.636,0,0,1,.589,1.128h0c-.2.107-.785.518-.785.961a1.577,1.577,0,0,0,.432.819,2.609,2.609,0,0,1,.693,1.593,3.122,3.122,0,0,1-1.412,2.235A.638.638,0,0,1,1331.661,584.277Z" transform="translate(3.143 4.586)" fill="#333"/>
    <path id="パス_322" data-name="パス 322" d="M1340.285,584.277a.635.635,0,0,1-.36-1.161c.221-.153.854-.7.854-1.183a1.574,1.574,0,0,0-.432-.821,2.206,2.206,0,0,1,.776-3.681.636.636,0,0,1,.587,1.128c-.2.109-.781.518-.781.961a1.585,1.585,0,0,0,.43.819,2.61,2.61,0,0,1,.692,1.593,3.122,3.122,0,0,1-1.412,2.235A.638.638,0,0,1,1340.285,584.277Z" transform="translate(10.187 4.586)" fill="#333"/>
    <path id="パス_323" data-name="パス 323" d="M1342.143,584.277a.635.635,0,0,1-.36-1.161c.221-.153.856-.7.856-1.183a1.575,1.575,0,0,0-.433-.821,2.206,2.206,0,0,1,.774-3.681.636.636,0,0,1,.589,1.128c-.205.109-.783.518-.783.961a1.585,1.585,0,0,0,.43.819,2.61,2.61,0,0,1,.692,1.593,3.122,3.122,0,0,1-1.41,2.235A.644.644,0,0,1,1342.143,584.277Z" transform="translate(11.705 4.586)" fill="#333"/>
    <path id="パス_324" data-name="パス 324" d="M1329.688,584.277a.636.636,0,0,1-.36-1.161c.222-.153.856-.7.856-1.183a1.591,1.591,0,0,0-.432-.821,2.608,2.608,0,0,1-.692-1.592,2.638,2.638,0,0,1,1.466-2.089.637.637,0,0,1,.59,1.128h0c-.205.107-.787.518-.787.961a1.576,1.576,0,0,0,.432.819,2.61,2.61,0,0,1,.692,1.593,3.122,3.122,0,0,1-1.41,2.235A.645.645,0,0,1,1329.688,584.277Z" transform="translate(1.531 4.586)" fill="#333"/>
  </g>
</svg>
