<svg xmlns="http://www.w3.org/2000/svg" width="36.761" height="28.215" viewBox="0 0 36.761 28.215">
  <g id="グループ_318" data-name="グループ 318" transform="translate(-861.814 -579.189)">
    <g id="グループ_316" data-name="グループ 316" transform="translate(861.814 579.189)">
      <g id="グループ_315" data-name="グループ 315">
        <rect id="長方形_67" data-name="長方形 67" width="35.575" height="18.973" rx="3" transform="translate(0.593 0.593)" fill="#333"/>
        <path id="パス_212" data-name="パス 212" d="M894.425,599.347h-28.46a4.155,4.155,0,0,1-4.15-4.15V583.34a4.155,4.155,0,0,1,4.15-4.15h28.46a4.155,4.155,0,0,1,4.15,4.15V595.2A4.155,4.155,0,0,1,894.425,599.347Zm-28.46-18.972A2.968,2.968,0,0,0,863,583.34V595.2a2.968,2.968,0,0,0,2.965,2.965h28.46a2.967,2.967,0,0,0,2.965-2.965V583.34a2.967,2.967,0,0,0-2.965-2.965Z" transform="translate(-861.814 -579.189)" fill="#333"/>
      </g>
      <path id="パス_213" data-name="パス 213" d="M866.529,597.1h-1.423v-4.98a.711.711,0,0,1,.712-.712h27.53a.711.711,0,0,1,.712.712v4.953h-1.423v-4.243H866.529Z" transform="translate(-861.202 -576.918)" fill="#fff"/>
      <path id="パス_214" data-name="パス 214" d="M881.512,583.769h-7.1a.593.593,0,1,1,0-1.186h7.1a.593.593,0,1,1,0,1.186Z" transform="translate(-859.583 -578.558)" fill="#fff"/>
    </g>
    <g id="グループ_317" data-name="グループ 317" transform="translate(873.559 601.012)">
      <path id="パス_215" data-name="パス 215" d="M877.115,603.984a.71.71,0,0,1-.48-1.236,1.621,1.621,0,0,0,.506-.979,1.51,1.51,0,0,0-.274-.71,2.781,2.781,0,0,1-.459-1.415,2.492,2.492,0,0,1,1.036-1.924.712.712,0,0,1,.822,1.162,1.1,1.1,0,0,0-.435.761,1.517,1.517,0,0,0,.274.714,2.761,2.761,0,0,1,.46,1.411,3.024,3.024,0,0,1-.97,2.029A.706.706,0,0,1,877.115,603.984Z" transform="translate(-870.848 -597.592)" fill="#333"/>
      <path id="パス_216" data-name="パス 216" d="M872.431,603.984a.712.712,0,0,1-.48-1.237,1.615,1.615,0,0,0,.508-.978,1.5,1.5,0,0,0-.275-.71,2.78,2.78,0,0,1-.459-1.415,2.492,2.492,0,0,1,1.038-1.924.712.712,0,0,1,.822,1.162,1.093,1.093,0,0,0-.436.761,1.508,1.508,0,0,0,.275.714,2.77,2.77,0,0,1,.459,1.411,3.036,3.036,0,0,1-.97,2.03A.713.713,0,0,1,872.431,603.984Z" transform="translate(-871.719 -597.592)" fill="#333"/>
      <path id="パス_217" data-name="パス 217" d="M881.8,603.984a.71.71,0,0,1-.48-1.236,1.628,1.628,0,0,0,.506-.979,1.51,1.51,0,0,0-.274-.71,2.769,2.769,0,0,1-.46-1.415,2.492,2.492,0,0,1,1.038-1.924.712.712,0,0,1,.822,1.162,1.1,1.1,0,0,0-.435.761,1.505,1.505,0,0,0,.274.714,2.769,2.769,0,0,1,.459,1.411,3.024,3.024,0,0,1-.97,2.029A.7.7,0,0,1,881.8,603.984Z" transform="translate(-869.978 -597.592)" fill="#333"/>
    </g>
  </g>
</svg>
