<svg xmlns="http://www.w3.org/2000/svg" width="45.473" height="38.493" viewBox="0 0 45.473 38.493">
  <g id="グループ_356" data-name="グループ 356" transform="translate(-1051.818 -579.463)">
    <rect id="長方形_140" data-name="長方形 140" width="42.758" height="2.375" rx="0.5" transform="translate(1051.818 593.957)" fill="#333"/>
    <g id="グループ_354" data-name="グループ 354" transform="translate(1053.21 595.723)">
      <path id="パス_15" data-name="パス 15" d="M1090.477,586.308v10.737a5.369,5.369,0,0,1-5.368,5.369h-26.843a5.373,5.373,0,0,1-5.361-5.369V586.308" transform="translate(-1051.716 -586.308)" fill="#333"/>
      <path id="パス_267" data-name="パス 267" d="M1085.8,603.6h-26.843a6.574,6.574,0,0,1-6.549-6.556V586.308h2.376v10.737a4.193,4.193,0,0,0,4.176,4.181h26.84a4.185,4.185,0,0,0,4.178-4.181V586.308h2.375v10.737A6.564,6.564,0,0,1,1085.8,603.6Z" transform="translate(-1052.404 -586.308)" fill="#333"/>
    </g>
    <rect id="長方形_141" data-name="長方形 141" width="2.375" height="4.751" rx="0.5" transform="translate(1060.132 611.773)" fill="#333"/>
    <rect id="長方形_142" data-name="長方形 142" width="2.375" height="4.751" transform="translate(1083.887 611.773)" fill="#333"/>
    <path id="パス_268" data-name="パス 268" d="M1071.153,588.668a.267.267,0,0,1,.2.09c1.413,1.592,2.77,3.585,2.3,6.385a3.012,3.012,0,0,0,1.06-2.774.274.274,0,0,1,.271-.283.281.281,0,0,1,.209.1l.214.257c1.789,2.136,3.661,4.685,3.219,7.908a6.74,6.74,0,0,1-4.663,5.6,5.994,5.994,0,0,1-1.7.237,7.222,7.222,0,0,1-3.433-.879,6.346,6.346,0,0,1-.891-.589l-.594-.544a4.786,4.786,0,0,1-1.15-1.981,5.351,5.351,0,0,1-.183-1l-.026-.542a6.669,6.669,0,0,1,.356-2.266,7.913,7.913,0,0,1,.622-1.254,7.305,7.305,0,0,1,.492-.748c.214-.285.456-.6.715-.924.328-.416.674-.858,1-1.3l.39-.544c.221-.321.428-.639.6-.948a6.052,6.052,0,0,0,.777-2.029l.048-.544a5.753,5.753,0,0,0-.1-1.1.271.271,0,0,1,.15-.292.266.266,0,0,1,.119-.028m1.081,16.992a5.465,5.465,0,0,0,1.554-.216,6.192,6.192,0,0,0,4.278-5.152c.392-2.85-1.2-5.188-2.834-7.169a3.318,3.318,0,0,1-1.839,2.839.279.279,0,0,1-.131.033.277.277,0,0,1-.271-.273v-.109a.293.293,0,0,1,.007-.064,6.29,6.29,0,0,0-1.5-5.73,5.551,5.551,0,0,1-.886,3.133,24.618,24.618,0,0,1-2.038,2.865c-.257.325-.5.634-.708.915a7.028,7.028,0,0,0-.506.774.255.255,0,0,1-.047.09,6.068,6.068,0,0,0-.62,4.466,4.725,4.725,0,0,0,2.373,2.786,6.681,6.681,0,0,0,3.167.812m-1.081-19.367a2.65,2.65,0,0,0-2.606,3.114,3.615,3.615,0,0,1,.067.58l-.031.349a4.172,4.172,0,0,1-.487,1.164c-.14.249-.307.5-.485.763l-.368.513c-.295.4-.627.822-.938,1.219-.287.366-.534.679-.751.969a9.741,9.741,0,0,0-.646.981h0a10.005,10.005,0,0,0-.784,1.6,9,9,0,0,0-.513,3.114l.029.651a7.9,7.9,0,0,0,.271,1.535,7.112,7.112,0,0,0,1.71,2.967c.038.04.078.081.121.119l.594.544c.04.038.083.074.126.107a8.888,8.888,0,0,0,1.226.813,9.648,9.648,0,0,0,4.575,1.171,8.345,8.345,0,0,0,2.382-.337,9.117,9.117,0,0,0,6.338-7.552c.623-4.535-2.223-7.932-3.751-9.756l-.218-.261a2.644,2.644,0,0,0-2.026-.943h-.019a14.255,14.255,0,0,0-1.836-2.53,2.647,2.647,0,0,0-1.979-.888Zm-1.717,12.371a5.064,5.064,0,0,1,.333-.511c.2-.266.43-.558.672-.867.133-.169.268-.34.4-.516a2.615,2.615,0,0,0,1.064,1.226,2.646,2.646,0,0,0,2.613.055,6.711,6.711,0,0,0,.8-.513,4.473,4.473,0,0,1,.39,2.433,3.818,3.818,0,0,1-2.6,3.195,3.064,3.064,0,0,1-.876.119,4.357,4.357,0,0,1-2.024-.518,2.425,2.425,0,0,1-1.233-1.356,3.734,3.734,0,0,1,.425-2.684h0l.033-.062Z" transform="translate(16.221 9.395)" fill="#fff"/>
    <path id="パス_269" data-name="パス 269" d="M1074.034,591.066l-.214-.257a.272.272,0,0,0-.48.185,3.012,3.012,0,0,1-1.059,2.774c.468-2.8-.889-4.794-2.3-6.385a.272.272,0,0,0-.47.23,5.753,5.753,0,0,1,.1,1.1l-.048.544a6.054,6.054,0,0,1-.777,2.029c-.174.309-.38.627-.6.948l-.39.544c-.328.447-.675.889-1,1.3-.259.328-.5.639-.715.924a7.325,7.325,0,0,0-.492.748,7.913,7.913,0,0,0-.622,1.254,6.669,6.669,0,0,0-.356,2.266l.026.542a5.351,5.351,0,0,0,.183,1,4.787,4.787,0,0,0,1.15,1.981l.594.544a6.347,6.347,0,0,0,.891.589,7.221,7.221,0,0,0,3.433.879,5.992,5.992,0,0,0,1.7-.237,6.737,6.737,0,0,0,4.663-5.6C1077.7,595.75,1075.823,593.2,1074.034,591.066Z" transform="translate(17.596 10.77)" fill="#333"/>
    <path id="パス_270" data-name="パス 270" d="M1070.315,594.015a4.239,4.239,0,0,1-.81-1.195,5.05,5.05,0,0,1-.152-2.069.2.2,0,0,0-.135-.209.209.209,0,0,0-.24.069c-.064.086-.128.166-.192.247a4.661,4.661,0,0,0-.839,1.394c-.167.5-.6.748-.653.219a.209.209,0,0,0-.169-.185.215.215,0,0,0-.228.109,6.079,6.079,0,0,0-.845,2.53,3.753,3.753,0,0,0,.62,2.326,2.813,2.813,0,0,0,.883.774h0a3.037,3.037,0,0,0,.639.273,2.774,2.774,0,0,0,.789.116,2.278,2.278,0,0,0,1.625-.637,2.393,2.393,0,0,0,.648-2.233A3.958,3.958,0,0,0,1070.315,594.015Z" transform="translate(19.574 15.22)" fill="#fff"/>
    <g id="グループ_355" data-name="グループ 355" transform="translate(1063.595 579.463)">
      <path id="パス_271" data-name="パス 271" d="M1062.346,592.856a1.189,1.189,0,0,1-.736-2.121c1.216-.955,1.036-1.625-.321-3.789-1.164-1.86-2.924-4.67.321-7.226a1.187,1.187,0,0,1,1.47,1.865c-1.449,1.143-1.133,1.936.223,4.1,1.128,1.8,2.827,4.516-.223,6.917A1.188,1.188,0,0,1,1062.346,592.856Z" transform="translate(-1052.678 -579.463)" fill="#333"/>
      <path id="パス_272" data-name="パス 272" d="M1065.324,592.856a1.189,1.189,0,0,1-.734-2.121c1.214-.955,1.033-1.625-.321-3.789-1.164-1.86-2.927-4.67.321-7.226a1.187,1.187,0,0,1,1.471,1.865c-1.452,1.143-1.136,1.936.223,4.1,1.126,1.8,2.827,4.516-.223,6.917A1.19,1.19,0,0,1,1065.324,592.856Z" transform="translate(-1048.581 -579.463)" fill="#333"/>
      <path id="パス_273" data-name="パス 273" d="M1059.365,592.856a1.188,1.188,0,0,1-.732-2.121c1.211-.955,1.033-1.627-.321-3.789-1.166-1.86-2.929-4.67.318-7.226a1.187,1.187,0,1,1,1.471,1.865c-1.452,1.14-1.133,1.936.223,4.1,1.126,1.8,2.832,4.516-.226,6.917A1.179,1.179,0,0,1,1059.365,592.856Z" transform="translate(-1056.776 -579.463)" fill="#333"/>
    </g>
  </g>
</svg>
