<svg xmlns="http://www.w3.org/2000/svg" width="32.571" height="37.882" viewBox="0 0 32.571 37.882">
  <g id="グループ_350" data-name="グループ 350" transform="translate(-1377.004 -565.737)">
    <rect id="長方形_136" data-name="長方形 136" width="26.607" height="26.607" rx="1.768" transform="translate(1379.986 577.011)" fill="#333"/>
    <path id="長方形_137" data-name="長方形 137" d="M.2,0h21.87a.2.2,0,0,1,.2.2v21.87a.2.2,0,0,1-.2.2H.2a.2.2,0,0,1-.2-.2V.2A.2.2,0,0,1,.2,0Z" transform="translate(1382.158 579.183)" fill="#fff"/>
    <path id="パス_252" data-name="パス 252" d="M1392.334,566.051l-14.841,11.4c-.994.764-.372,2.191.955,2.191h29.682c1.328,0,1.95-1.426.955-2.191l-14.841-11.4A1.609,1.609,0,0,0,1392.334,566.051Z" fill="#333"/>
    <g id="グループ_349" data-name="グループ 349" transform="translate(1383.023 582.716)">
      <g id="グループ_344" data-name="グループ 344">
        <g id="グループ_341" data-name="グループ 341" transform="translate(0 7.467)">
          <path id="パス_253" data-name="パス 253" d="M1394.837,593.379H1381.61s0-9.7,6.612-9.7S1394.837,593.379,1394.837,593.379Z" transform="translate(-1381.263 -583.329)" fill="#333"/>
          <path id="パス_254" data-name="パス 254" d="M1395.278,593.818h-13.919v-.345a17.149,17.149,0,0,1,.846-4.963c1.132-3.327,3.247-5.085,6.113-5.085,6.88,0,6.96,9.948,6.96,10.048Zm-13.217-.691h12.515c-.083-1.692-.756-9.011-6.258-9.011S1382.144,591.436,1382.061,593.127Z" transform="translate(-1381.359 -583.425)" fill="#fff"/>
        </g>
        <g id="グループ_343" data-name="グループ 343" transform="translate(2.882)">
          <g id="グループ_342" data-name="グループ 342">
            <path id="パス_255" data-name="パス 255" d="M1387.423,578.273a3.733,3.733,0,1,0,3.736,3.732,3.734,3.734,0,0,0-3.736-3.732Z" transform="translate(-1383.348 -577.926)" fill="#333"/>
            <path id="パス_256" data-name="パス 256" d="M1387.52,586.18a4.079,4.079,0,1,1,4.08-4.079A4.082,4.082,0,0,1,1387.52,586.18Zm0-7.467a3.388,3.388,0,1,0,3.389,3.389A3.391,3.391,0,0,0,1387.52,578.713Z" transform="translate(-1383.444 -578.022)" fill="#fff"/>
          </g>
        </g>
      </g>
      <g id="グループ_348" data-name="グループ 348" transform="translate(6.615)">
        <g id="グループ_345" data-name="グループ 345" transform="translate(0 7.467)">
          <path id="パス_257" data-name="パス 257" d="M1399.622,593.379H1386.4s0-9.7,6.612-9.7S1399.622,593.379,1399.622,593.379Z" transform="translate(-1386.049 -583.329)" fill="#333"/>
          <path id="パス_258" data-name="パス 258" d="M1400.063,593.818h-13.918v-.345a17.122,17.122,0,0,1,.844-4.963c1.132-3.327,3.247-5.085,6.113-5.085,6.88,0,6.96,9.948,6.96,10.048Zm-13.217-.691h12.515c-.083-1.692-.756-9.011-6.258-9.011S1386.929,591.436,1386.846,593.127Z" transform="translate(-1386.145 -583.425)" fill="#fff"/>
        </g>
        <g id="グループ_347" data-name="グループ 347" transform="translate(2.88)">
          <g id="グループ_346" data-name="グループ 346">
            <path id="パス_259" data-name="パス 259" d="M1392.208,578.273a3.733,3.733,0,1,0,3.736,3.732,3.733,3.733,0,0,0-3.736-3.732Z" transform="translate(-1388.133 -577.926)" fill="#333"/>
            <path id="パス_260" data-name="パス 260" d="M1392.3,586.18a4.079,4.079,0,1,1,4.08-4.079A4.082,4.082,0,0,1,1392.3,586.18Zm0-7.467a3.388,3.388,0,1,0,3.389,3.389A3.391,3.391,0,0,0,1392.3,578.713Z" transform="translate(-1388.229 -578.022)" fill="#fff"/>
          </g>
        </g>
      </g>
    </g>
  </g>
</svg>
