<svg xmlns="http://www.w3.org/2000/svg" width="37.51" height="26.548" viewBox="0 0 37.51 26.548">
  <g id="グループ_217" data-name="グループ 217" transform="translate(-993.468 -455.861)">
    <path id="パス_103" data-name="パス 103" d="M1029.33,466.126a1.648,1.648,0,0,1-1.164-.483,22.833,22.833,0,0,0-31.886,0,1.647,1.647,0,0,1-2.329-2.329,26.124,26.124,0,0,1,36.544,0,1.647,1.647,0,0,1-1.165,2.812Z" transform="translate(0 0)" fill="#333"/>
    <path id="パス_104" data-name="パス 104" d="M1016.225,470.354a1.642,1.642,0,0,1-1.164-.483,9.238,9.238,0,0,0-13.068,0,1.647,1.647,0,0,1-2.329-2.329,12.53,12.53,0,0,1,17.726,0,1.647,1.647,0,0,1-1.165,2.812Z" transform="translate(3.697 5.182)" fill="#333"/>
    <path id="パス_105" data-name="パス 105" d="M1022.872,468.193a1.636,1.636,0,0,1-1.164-.483,16.011,16.011,0,0,0-22.613,0,1.647,1.647,0,1,1-2.329-2.329,19.308,19.308,0,0,1,27.271,0,1.647,1.647,0,0,1-1.164,2.812Z" transform="translate(1.822 2.512)" fill="#333"/>
    <g id="グループ_216" data-name="グループ 216" transform="translate(1008.865 475.694)">
      <circle id="楕円形_8" data-name="楕円形 8" cx="2.535" cy="2.535" r="2.535" transform="translate(0.824 0.824)" fill="#333"/>
      <path id="パス_106" data-name="パス 106" d="M1006.174,474.617a3.358,3.358,0,1,1,3.358-3.357A3.362,3.362,0,0,1,1006.174,474.617Zm0-5.068a1.711,1.711,0,1,0,1.711,1.711A1.713,1.713,0,0,0,1006.174,469.549Z" transform="translate(-1002.816 -467.902)" fill="#333"/>
    </g>
  </g>
</svg>
