<svg xmlns="http://www.w3.org/2000/svg" width="23.292" height="42.458" viewBox="0 0 23.292 42.458">
  <g id="グループ_379" data-name="グループ 379" transform="translate(-1140.052 -567.733)">
    <path id="パス_306" data-name="パス 306" d="M1162.884,577.241a.5.5,0,0,1,.461.532l-.564,1.837c0,3.237-1.425,5.848-4.317,5.848h4.191a.5.5,0,0,1,.461.532l.229,19.72h-23.292V586a.5.5,0,0,1,.461-.532h4.191c-2.879,0-4.088-2.523-4.088-5.836l-.564-2.061a.5.5,0,0,1,.461-.532" transform="translate(0 4.481)" fill="#333"/>
    <line id="線_93" data-name="線 93" y2="10.758" transform="translate(1151.698 594.842)" fill="#fff"/>
    <path id="パス_307" data-name="パス 307" d="M1148.153,597.771a.741.741,0,0,1-.741-.741V586.271a.741.741,0,0,1,1.482,0V597.03A.741.741,0,0,1,1148.153,597.771Z" transform="translate(3.545 8.571)" fill="#fff"/>
    <path id="パス_308" data-name="パス 308" d="M1152.269,570.815a.743.743,0,0,1-.741.741h-4.445a.743.743,0,0,1-.741-.741h0a.743.743,0,0,1,.741-.741h4.445a.743.743,0,0,1,.741.741Z" transform="translate(3.03 1.127)" fill="#333"/>
    <path id="パス_309" data-name="パス 309" d="M1147.325,575.278a.743.743,0,0,1-.741.741h0a.743.743,0,0,1-.741-.741v-2.963a.743.743,0,0,1,.741-.741h0a.743.743,0,0,1,.741.741Z" transform="translate(2.789 1.85)" fill="#333"/>
    <path id="パス_310" data-name="パス 310" d="M1151.325,575.278a.743.743,0,0,1-.741.741h0a.743.743,0,0,1-.741-.741v-2.963a.743.743,0,0,1,.741-.741h0a.743.743,0,0,1,.741.741Z" transform="translate(4.715 1.85)" fill="#333"/>
    <path id="パス_311" data-name="パス 311" d="M1149.325,576.76a.743.743,0,0,1-.741.741h0a.743.743,0,0,1-.741-.741v-4.445a.743.743,0,0,1,.741-.741h0a.743.743,0,0,1,.741.741Z" transform="translate(3.752 1.85)" fill="#333"/>
    <path id="パス_312" data-name="パス 312" d="M1145.441,581.722h-1.482V571.267a3.532,3.532,0,1,1,7.064,0h-1.482a2.051,2.051,0,1,0-4.1,0Z" transform="translate(1.882)" fill="#333"/>
  </g>
</svg>
