<svg xmlns="http://www.w3.org/2000/svg" width="27.634" height="34.179" viewBox="0 0 27.634 34.179">
  <g id="グループ_326" data-name="グループ 326" transform="translate(-1120.147 -577.536)">
    <g id="グループ_321" data-name="グループ 321" transform="translate(1120.798 593.726)">
      <rect id="長方形_68" data-name="長方形 68" width="25.184" height="3.598" rx="0.495" transform="translate(0.899 0.9)" fill="#333"/>
      <path id="パス_221" data-name="パス 221" d="M1146.6,591.933h-25.2a.891.891,0,0,1-.891-.89v-3.614a.892.892,0,0,1,.891-.892h25.2a.892.892,0,0,1,.892.892v3.614A.892.892,0,0,1,1146.6,591.933Zm-24.292-1.8h23.385v-1.8h-23.385Z" transform="translate(-1120.509 -586.536)" fill="#333"/>
    </g>
    <path id="長方形_70" data-name="長方形 70" d="M1124.648,589.036" transform="translate(3.596 9.187)" fill="#333" stroke="#333" stroke-miterlimit="10" stroke-width="1"/>
    <g id="グループ_322" data-name="グループ 322" transform="translate(1121.797 597.324)">
      <path id="パス_17" data-name="パス 17" d="M1127.172,589.151h16.19c0,2.981-4.267,5.591-7.248,5.591v7H1124.87v-5.116a8.1,8.1,0,0,0-1.234-4.3l-2.148-3.434" transform="translate(-1120.725 -588.252)" fill="#333"/>
      <path id="パス_222" data-name="パス 222" d="M1137.353,602.927h-13.044v-6.015a7.2,7.2,0,0,0-1.1-3.823l-2.148-3.434,1.526-.955,2.146,3.436a8.981,8.981,0,0,1,1.373,4.776v4.216h9.446v-7h.9c2.312,0,5.409-1.794,6.172-3.794h-15.116v-1.8H1144.6v.9c0,3.371-4.094,5.983-7.246,6.424Z" transform="translate(-1121.064 -588.536)" fill="#333"/>
    </g>
    <g id="グループ_323" data-name="グループ 323" transform="translate(1120.147 577.536)">
      <path id="長方形_71" data-name="長方形 71" d="M1122.447,578.136h0a2,2,0,0,1,1.8,2.159v17.269h-3.6V580.295A2,2,0,0,1,1122.447,578.136Z" transform="translate(-1119.747 -577.057)" fill="#333"/>
      <path id="パス_223" data-name="パス 223" d="M1124.641,599.122h-3.589a.906.906,0,0,1-.9-.9V580.774a2.743,2.743,0,1,1,5.4,0v17.444A.9.9,0,0,1,1124.641,599.122Zm-2.695-2.159h1.8v-16.19a.914.914,0,1,0-1.8,0Z" transform="translate(-1120.147 -577.536)" fill="#333"/>
    </g>
    <path id="パス_224" data-name="パス 224" d="M1131.37,584.057a.914.914,0,0,1,.9-.9h0a.9.9,0,0,1,.9.9h0a.892.892,0,0,1-.9.9h0A.9.9,0,0,1,1131.37,584.057Z" transform="translate(8.966 4.491)" fill="#333"/>
    <path id="パス_225" data-name="パス 225" d="M1131.569,585.7a.9.9,0,0,1,.9-.9h0a.913.913,0,0,1,.9.9h0a.9.9,0,0,1-.9.9h0A.892.892,0,0,1,1131.569,585.7Z" transform="translate(9.125 5.801)" fill="#333"/>
    <g id="グループ_324" data-name="グループ 324" transform="translate(1134.82 581.42)">
      <path id="パス_226" data-name="パス 226" d="M1129.7,592.126v-8.611a1.976,1.976,0,1,1,3.88,0,.659.659,0,1,0,1.293,0h0c-.094-2.166-1.617-3.828-3.4-3.713a3.634,3.634,0,0,0-3.063,3.713v8.626" transform="translate(-1128.225 -579.614)" fill="#333"/>
      <path id="パス_227" data-name="パス 227" d="M1128.482,592.4a.179.179,0,0,1-.178-.18v-8.626a3.805,3.805,0,0,1,3.229-3.893,3.02,3.02,0,0,1,2.231.811,4.382,4.382,0,0,1,1.365,3.074.836.836,0,1,1-1.651.007,1.8,1.8,0,1,0-3.522,0v8.611a.18.18,0,0,1-.36,0v-8.611a2.153,2.153,0,1,1,4.24,0,.482.482,0,1,0,.934,0,4.013,4.013,0,0,0-1.247-2.813,2.718,2.718,0,0,0-1.966-.721,3.453,3.453,0,0,0-2.895,3.544v8.617A.179.179,0,0,1,1128.482,592.4Z" transform="translate(-1128.304 -579.695)" fill="#333"/>
    </g>
    <path id="パス_228" data-name="パス 228" d="M1125.14,584.057a.9.9,0,0,1,.9-.9h0a.914.914,0,0,1,.9.9h0a.9.9,0,0,1-.9.9h0A.89.89,0,0,1,1125.14,584.057Z" transform="translate(3.989 4.491)" fill="#333"/>
    <path id="パス_229" data-name="パス 229" d="M1124.939,585.7a.915.915,0,0,1,.9-.9h0a.9.9,0,0,1,.9.9h0a.89.89,0,0,1-.9.9h0A.9.9,0,0,1,1124.939,585.7Z" transform="translate(3.828 5.801)" fill="#333"/>
    <g id="グループ_325" data-name="グループ 325" transform="translate(1129.622 581.42)">
      <path id="パス_230" data-name="パス 230" d="M1131.981,592.14v-8.626a3.635,3.635,0,0,0-3.063-3.713c-1.786-.115-3.31,1.547-3.4,3.713h0a.659.659,0,1,0,1.293,0,1.976,1.976,0,1,1,3.88,0v8.611" transform="translate(-1125.334 -579.614)" fill="#333"/>
      <path id="パス_231" data-name="パス 231" d="M1132.059,592.4a.179.179,0,0,1-.178-.18v-8.626a3.45,3.45,0,0,0-2.9-3.535c-.052,0-.1,0-.155,0a2.705,2.705,0,0,0-1.81.725,4.027,4.027,0,0,0-1.248,2.822.482.482,0,1,0,.936-.009,2.153,2.153,0,1,1,4.238,0v8.611a.179.179,0,1,1-.358,0v-8.611a1.8,1.8,0,1,0-3.522,0,.836.836,0,1,1-1.652,0,4.378,4.378,0,0,1,1.365-3.081,3.023,3.023,0,0,1,2.231-.811,3.8,3.8,0,0,1,3.229,3.886v8.633A.179.179,0,0,1,1132.059,592.4Z" transform="translate(-1125.414 -579.695)" fill="#333"/>
    </g>
  </g>
</svg>
