<svg xmlns="http://www.w3.org/2000/svg" width="40.157" height="39.715" viewBox="0 0 40.157 39.715">
  <g id="グループ_331" data-name="グループ 331" transform="translate(-1230.545 -567.291)">
    <g id="グループ_329" data-name="グループ 329" transform="translate(1236.742 580.531)">
      <g id="グループ_328" data-name="グループ 328">
        <path id="パス_236" data-name="パス 236" d="M1258.929,582.991l-.017-.033c0-.008-.011-.011-.015-.019a12.844,12.844,0,0,0-13.035-5.6l-.112.015c-.008,0-.015.007-.024.008a12.773,12.773,0,0,0-3.362,1.141c-.01.005-.022,0-.032.01l-.082.049a12.9,12.9,0,0,0-7,11.46c0,.092,0,.182.007.274l0,.006,0,.011a12.813,12.813,0,0,0,2.653,7.539l.02.028.007.005a12.88,12.88,0,0,0,20.994-14.895Zm-.586,13.147,0,0-.134.18-.3.263-.429.248-.345.127.278-.653.379-1.192.273-1.245.166-1.287.013-.274.3-.067.706-.244.609-.309.071-.049A11.832,11.832,0,0,1,1258.343,596.137Zm-3.877,3.213-.474.479-.5.43-.526.382-.547.33-.567.277-.583.223-.621.175c-.012,0-.022.013-.035.017a11.883,11.883,0,0,1-1.361.206l.432-.415.54-.661.513-.773.638-1.188.21-.493.228.028,1.832.078.661-.011h.024l.653-.038.266-.033-.337.464Zm-9.523,2.135-.007-.121.039-.558.791-3.569,2.047.522,2.036.376.706.084-.217.482-.6,1.056-.469.659-.472.538-.465.411-.45.283-.423.161-.4.053-.171-.008a.146.146,0,0,0-.026,0A11.813,11.813,0,0,1,1244.942,601.485Zm-2.454-.99-.014-.011-.344-.215-.316-.26-.43-.479-.366-.586-.3-.689-.223-.788-.141-.876-.056-.954.015-.471.816.409,1.848.765,1.738.579-.645,3.168-.107,1.081A11.59,11.59,0,0,1,1242.489,600.5Zm-5.369-14.969.28.479.007.01-.341.694-.33.8-.274.809-.178.664A11.8,11.8,0,0,1,1237.12,585.527Zm-.2,6.075.012-.362.067-.753.12-.755.283-1.131.4-1.117.309-.656.3.294.916.731,1.39.893.084.043-.4,1-.394,1.216-.308,1.2-.221,1.184-.02.181-.62-.365-.932-.67-.734-.656Zm9.1-13.289.5-.071.624-.031.63.025.625.081-.578.078-.845.171-.841.227-.832.28-.816.333-.8.384-.777.433-.5.322-.109-.226-.045-.26.014-.113.144-.272.38-.284A11.787,11.787,0,0,1,1246.023,578.313Zm12.25,5.756-.047.217-.231.284-.49.283-.464.129-.074-.195-.567-1.182-.656-1.116-.74-1.035-.536-.641-.561-.591.2.092.7.387.669.433.632.476.592.517.55.556.507.588.46.625.045.071Zm-2.427,7.555-.642.012-1.389-.049-.418-.047.2-1.868.086-2.17-.008-.852-.028-.478,1.219.061.483-.008h.024l.716-.049.326-.054.081.216.349,1.2.251,1.232.152,1.245.049,1.245,0,.23Zm-4.451,4.452-.435,1.207-.191-.018-2.348-.387-2.393-.581-.051-.017.6-2.73.664-2.167,1.717.46,2.447.469.857.1-.345,1.756Zm-7.694-.524-1.813-.721-1.5-.721.063-.57.3-1.494.446-1.536.482-1.267.669.348,1.813.78,2.127.739-1.323,4.846Zm11.634-10.314-.464.008h-.242l-1.033-.085-.008-.16-.194-1.558L1253.1,582l-.383-1.29-.148-.366.089.07.812.774.753.872.688.962.613,1.042.526,1.1Zm-5.665-5.458.578-.233-.468,1.012-1.232,3.583-.634-.185-1.845-.735-.479-.248.762-.811.827-.751.834-.652.834-.546Zm1.228.667.32-.675.259.493.409,1.06.336,1.241.252,1.394.119,1.118-.088-.007-2.3-.442-.792-.233Zm-2.434-1.136-.421.241-.905.63-.891.733-.872.83-.7.756-.188-.1-1.057-.726-.389-.358.375-.248,1.1-.589,1.135-.485,1.163-.372,1.175-.258Zm-3.542,4.444.227.125,1.869.8,1.208.394-1.414,4.106-.266.972-2.028-.7-1.751-.753-.691-.358.425-.9.834-1.472.933-1.387Zm6.638,7.582-2.375-.455-1.649-.441,1.555-5.081,2.086.492,1.476.216.049,1.432-.006.415-.114,2.108-.174,1.409Zm-9.341-9.451.432.425,1.118.808.272.149-.311.384-1,1.425-.9,1.517-.636,1.285-1.05-.659-.883-.668-.663-.631.344-.578.726-1,.82-.937.907-.865Zm13.528,15.429-1.461.131-.642.011-1.031-.026-.63-.057.469-1.38.522-2.012.265-1.454.132.017,1.832.078.661-.011h.024l.652-.039.7-.088-.029.416-.188,1.188-.287,1.143-.381,1.083-.451.968Zm4.287-7.449-.063.3-.2.327-.3.265-.426.246-.754.276v-.017l-.052-1.326-.16-1.324-.267-1.311-.37-1.281-.04-.1.487-.157.463-.235.389-.3.156-.174.091.171.308.7.252.721.2.755h0a11.931,11.931,0,0,1,.288,2.458Zm-18.742-9.57v.008l.068.3.191.446.046.064-.157.116-.691.567-.656.607-.617.645-.575.678-.532.707-.4.6-.008-.014-.131-.366-.033-.312.008-.093.095-.292A11.971,11.971,0,0,1,1241.291,580.3Zm-2.6,16.957-.173-.237-.376-.586-.329-.62-.278-.646-.228-.673-.176-.694-.124-.714v-.011l.058.056.963.728,1.317.809-.031.982.029.706.127,1,.221.93.061.174A12.189,12.189,0,0,1,1238.692,597.253Zm17.422,1.593.028-.039.4-.646.337-.077C1256.638,598.349,1256.382,598.6,1256.114,598.846Z" transform="translate(-1234.896 -576.785)" fill="#333"/>
        <path id="パス_237" data-name="パス 237" d="M1248.237,603.358a13.155,13.155,0,0,1-10.43-5.1l-.036-.017-.056-.107a13.065,13.065,0,0,1-2.709-7.714l-.011-.093.008-.015,0-.191a13.2,13.2,0,0,1,7.192-11.769l.182-.085a12.726,12.726,0,0,1,3.388-1.146l.149-.028a13.225,13.225,0,0,1,13.377,5.753l.032.053a13.227,13.227,0,0,1-11.083,20.46Zm-9.979-5.651.031.015.056.107a12.535,12.535,0,0,0,15.874,3.312l1.741-2.437.465-.752,1.571-.354-.758.822c-.252.272-.514.532-.79.783l-1.978,1.8a12.522,12.522,0,0,0,4.267-17.719l-.04-.063a12.467,12.467,0,0,0-12.675-5.438l-.123.018a12.622,12.622,0,0,0-3.28,1.117l-.09.046a12.517,12.517,0,0,0-6.834,11.161l.007.27v.01A12.449,12.449,0,0,0,1238.258,597.706Zm10.132,4.7,1.149-1.107.514-.631.492-.745.62-1.16.3-.7.489.059,1.8.077,1.546-.082.8-.1-.812,1.116-.478.565-.475.478-.521.451-.55.4-.571.347-.595.291-.61.237-.653.185a11.127,11.127,0,0,1-1.457.235Zm3.511-3.6-.107.253-.652,1.217-.531.8-.33.407c.1-.019.208-.04.31-.061l.043-.017.638-.18.552-.213.54-.265.519-.315.5-.365.478-.414.735-.792-.849.022Zm-4.692,3.491-.185-.006-.06,0a12.163,12.163,0,0,1-2.015-.384l-.24-.067-.022-.368.039-.6.876-3.972,2.4.61,2.014.372,1.155.135-.412.916-.614,1.083-.486.689-.5.565-.5.441-.494.316-.485.194Zm-.256-.708.228.014.33-.05.345-.143.389-.253.423-.375.44-.506.444-.632.59-1.046-.235-.028-2.058-.38-1.723-.439-.713,3.22-.021.337a11.219,11.219,0,0,0,1.546.284Zm-2.585.152-.425-.157a12.4,12.4,0,0,1-1.522-.692l-.373-.235-.355-.288-.467-.515-.4-.634-.323-.737-.237-.831-.15-.914-.06-.99.032-1.046,1.3.652,1.824.753,2.007.67-.706,3.469Zm-1.561-1.433c.309.166.631.319.958.455l.061-.621.589-2.9-1.446-.482-2.217-.947.052.848.138.84.212.749.283.645.343.54.393.432.281.224Zm-2.12-.435-1.079-1.075a12.522,12.522,0,0,1-1.093-1.245l-.564-.845-.344-.645-.291-.671-.238-.7-.184-.721-.305-1.759.755.7,1,.76,1.458.894-.035,1.187.029.678.123.976.269,1.032Zm-1.617-2.741c.043.057.086.113.132.168l-.1-.815-.032-.734.025-.806-1.473-.95.128.5.22.646.267.62.318.595Zm14.68.765-2.138-.125.611-1.8.514-1.987.318-1.749.455.052,1.808.078,1.3-.05,1.093-.139-.061.838-.191,1.22-.294,1.171-.391,1.115-.536,1.156-.364.075-1.461.131Zm-1.195-.741.188.018,1.01.027.625-.013,1.379-.124.376-.8.369-1.053.279-1.111.176-1.121-.978.075-.668.013-1.684-.074-.208,1.146-.528,2.036Zm-1.259.586-.458-.039-2.375-.391-2.749-.666.022-.351.606-2.73.769-2.514,2.042.546,2.422.462,1.2.142-.418,2.124-.54,1.958Zm-4.806-1.628,2.113.514,2.221.368.339-.936.522-1.893.268-1.362-.483-.058-2.47-.472-1.419-.377-.564,1.845Zm10.105,1.542.6-1.4.365-1.16.266-1.216.182-1.766.557-.128.67-.233.564-.29.65-.45-.077.759a12.124,12.124,0,0,1-1.583,4.554v.017l-.2.273-.35.315-.484.288Zm2.082-4.98v.008l-.168,1.318-.279,1.276-.326,1.026.187-.178v-.244h.152a11.408,11.408,0,0,0,1.325-3.516l-.063.031ZM1245.3,596.5l-1.631-.522-1.815-.723-1.742-.837.092-.816.3-1.524.454-1.567.629-1.657,1.015.528,1.79.769,2.414.838Zm-1.384-1.174.9.29,1.142-4.184-1.822-.632-2.179-.967-.343.9-.437,1.511-.322,1.76,1.276.613Zm-4.076-1.078-1.083-.635-.957-.689-.763-.68-.368-.415.017-.5.068-.773.124-.778.288-1.16.411-1.152.529-1.131.649.639.89.707,1.7,1.043-.524,1.3-.386,1.194-.3,1.184Zm-2.466-2.671.156.178.706.627,1.056.737.16-.872.315-1.228.4-1.235.3-.751-1.228-.787-.919-.73-.1.216-.39,1.086-.271,1.1-.114.727Zm17.935.508-2.2-.137.244-2.213.084-2.147-.056-1.682,1.6.081,1.181-.057.571-.1.185.48.358,1.234.259,1.259.155,1.273.051,1.274-.01.56-1.787.16Zm-1.43-.751.073.008,1.363.046.61-.013,1.124-.1-.046-1.142-.149-1.217-.246-1.2-.319-1.1-.039.006-1.274.064-.854-.042.014.957-.086,2.189Zm-1.068.581-1.219-.136-2.374-.454-2.022-.54,1.758-5.738,2.4.567,1.734.252.057,1.72,0,.433-.114,2.124Zm-1.1-.822.5.054.131-1.067.116-2.487-.038-1.124-1.188-.173-1.8-.423-1.355,4.424,1.3.35Zm6.328.788v-.5l-.052-1.329-.157-1.3-.263-1.283-.524-1.674.834-.27.412-.214.44-.394.333-.375.327.614.318.726.478,1.54,0,.017,0,.015a12.315,12.315,0,0,1,.29,2.5l-.007.077-.109.419-.267.4-.3.265-.485.288Zm-.106-5.637.311,1.067.273,1.337.164,1.352.035.893.305-.111.373-.221.2-.187.148-.235.042-.2a11.8,11.8,0,0,0-.222-2.079h-.067v-.3l-.189-.712-.426-1.107-.221.173Zm-11.049,4.463-2.381-.827-1.773-.762-1.01-.525.565-1.2.848-1.493.946-1.411.854-1.078.486.269,1.837.787,1.514.493-1.529,4.438Zm-4.25-2.423.394.206,1.727.741,1.653.572.169-.611,1.3-3.792-.87-.286-1.9-.812-.472.595-.915,1.365-.822,1.447Zm-5.915.883-.683-.12a12.117,12.117,0,0,1,.861-3.553l.269-.652.78,1.263-.127.163-.341.694-.319.776-.27.788Zm4.72-.687-1.376-.865-.911-.687-.891-.847.485-.818.744-1.026.84-.962.926-.886,1.089-.869.65.643,1.315.9.362.2-.571.706-.983,1.405-.886,1.5Zm-2.3-2.521.461.439.854.645.7.437.464-.941.912-1.54,1.085-1.536-1.071-.767-.251-.245-.582.464-.88.843-.8.916Zm-1.085-.169-.285-.474-.169-.441-.052-.394.009-.16.108-.369a12.186,12.186,0,0,1,3.522-3.841l.549-.387v.68l.06.224.171.384.2.28-1.1.875-.641.593-.6.63-.562.661Zm3.138-4.819a11.5,11.5,0,0,0-2.694,2.939l.219-.292.591-.7.63-.66.671-.621.644-.531Zm13.783,4.723h-.251l-1.363-.11-.025-.467-.191-1.532-.286-1.411-.512-1.6-.476-1.187,1.1.851.839.8.777.9.706.989.631,1.065.754,1.574Zm-.961-.758.955.061.656-.029-.313-.653-.6-1.014-.669-.937-.611-.7.1.344.3,1.466Zm-.934.62-.506-.039-2.341-.446-1.184-.345,1.631-4.33.618-1.3.585,1.11.426,1.1.345,1.274.259,1.421Zm-3.114-1.287.432.125,1.9.362-.071-.661-.249-1.368-.327-1.212-.327-.844-.005.01Zm6.961,1.234-.188-.493-.556-1.156-.642-1.09-.723-1.008-.518-.618-1.822-1.914,1.87.875.72.4.688.444.653.489.611.533.569.572.524.607.585.868.026.166-.132.428-.327.365-.49.284Zm-1.262-3.762.459.643.673,1.141.546,1.138.166-.046.351-.216.15-.217-.44-.607-.49-.568-.535-.536Zm-6.8,2.929-.954-.279-1.876-.747-.918-.476,1.077-1.143.847-.772.855-.667.858-.563.882-.468,1.391-.56-.833,1.809Zm-2.611-1.694.071.036,2.1.8,1.221-3.477-.536.284-.808.531-.812.635-.806.735Zm-1.4.054-.425-.22-1.095-.748-.755-.691.748-.493,1.123-.606,1.163-.5,1.193-.383,1.206-.266,2.212-.267-1.91,1.093-.879.613-.869.717-.854.811Zm-1.146-1.567.06.056.94.642.511-.556.887-.844.823-.678-1.074.345-1.1.472Zm-1.341-.315-.306-.673-.054-.312.057-.281.244-.389.382-.284a12.033,12.033,0,0,1,3.371-1.143l.515-.071.653-.035.661.025,3.266.418-3.184.435-.825.167-.822.22-.808.276-.8.326-.781.376Zm.421-1.146-.039.077.077-.05.8-.444.656-.315a11.052,11.052,0,0,0-1.224.531Z" transform="translate(-1234.995 -576.883)" fill="#333"/>
      </g>
    </g>
    <g id="グループ_330" data-name="グループ 330" transform="translate(1230.545 577.396)">
      <path id="パス_238" data-name="パス 238" d="M1262.53,603.714a20.22,20.22,0,0,1-3.372-.308,48.526,48.526,0,0,1-25-14.091c-4.452-5.16-3.993-8.717-2.822-10.792,1.387-2.464,4.45-3.959,7.976-3.89a3.482,3.482,0,0,1-.128,6.963,3.346,3.346,0,0,0-1.617.285c.444,1.576,3.854,6.023,11.442,10.3,7.548,4.255,13.1,4.89,14.711,4.464a2.648,2.648,0,0,0-.284-.916,3.482,3.482,0,0,1,6.1-3.353c1.077,1.962,1.806,5.2.308,7.855C1268.9,601.92,1266.868,603.714,1262.53,603.714Z" transform="translate(-1230.545 -574.631)" fill="#fff"/>
      <path id="パス_239" data-name="パス 239" d="M1261.946,601.039a18.193,18.193,0,0,1-3.029-.281,46.48,46.48,0,0,1-23.765-13.4c-3.66-4.239-3.424-6.909-2.582-8.4,1.01-1.792,3.3-2.894,6.116-2.826a1.393,1.393,0,0,1-.025,2.785h-.156c-1.629,0-3.029.559-3.51,1.411-.536.95.352,3,2.264,5.213a43.786,43.786,0,0,0,22.121,12.471c2.883.486,5.1.189,5.633-.763a3.7,3.7,0,0,0-.334-3.113,1.392,1.392,0,1,1,2.44-1.341,6.317,6.317,0,0,1,.32,5.821C1266.775,599.8,1265.281,601.039,1261.946,601.039Z" transform="translate(-1229.954 -574.042)" fill="#333"/>
    </g>
    <text id="FREE" transform="translate(1234.628 577.591)" fill="#333" stroke="#333" stroke-miterlimit="10" stroke-width="0.3" font-size="11" font-family="UDDigiKyokashoNP-B, UD Digi Kyokasho NP-B"><tspan x="0" y="0">FREE</tspan></text>
  </g>
</svg>
