<svg id="グループ_401" data-name="グループ 401" xmlns="http://www.w3.org/2000/svg" width="28.57" height="38.89" viewBox="0 0 28.57 38.89">
  <rect id="長方形_167" data-name="長方形 167" width="28.57" height="38.89" rx="1.4" fill="#333"/>
  <rect id="長方形_168" data-name="長方形 168" width="19.604" height="13.45" rx="0.5" transform="translate(4.483 4.293)" fill="#fff"/>
  <path id="パス_341" data-name="パス 341" d="M1550.3,542.26a1.227,1.227,0,1,0,1.227,1.206,1.226,1.226,0,0,0-1.227-1.206Z" transform="translate(-1544.565 -520.584)" fill="#fff"/>
  <path id="パス_342" data-name="パス 342" d="M1552.336,542.26a1.227,1.227,0,1,0,1.227,1.206,1.226,1.226,0,0,0-1.227-1.206Z" transform="translate(-1542.291 -520.584)" fill="#fff"/>
  <path id="パス_343" data-name="パス 343" d="M1554.387,542.26a1.227,1.227,0,1,0,1.206,1.206,1.226,1.226,0,0,0-1.206-1.206Z" transform="translate(-1540.028 -520.584)" fill="#fff"/>
  <path id="パス_344" data-name="パス 344" d="M1550.265,544a1.149,1.149,0,1,0,1.227,1.227,1.226,1.226,0,0,0-1.227-1.227Z" transform="translate(-1544.576 -518.644)" fill="#fff"/>
  <path id="パス_345" data-name="パス 345" d="M1552.336,544a1.227,1.227,0,1,0,1.227,1.227,1.227,1.227,0,0,0-1.227-1.227Z" transform="translate(-1542.291 -518.644)" fill="#fff"/>
  <path id="パス_346" data-name="パス 346" d="M1554.376,544a1.149,1.149,0,1,0,1.206,1.227,1.227,1.227,0,0,0-1.206-1.227Z" transform="translate(-1540.017 -518.644)" fill="#fff"/>
  <path id="パス_347" data-name="パス 347" d="M1550.276,545.78a1.227,1.227,0,1,0,1.227,1.227,1.226,1.226,0,0,0-1.227-1.227Z" transform="translate(-1544.588 -516.66)" fill="#fff"/>
  <path id="パス_348" data-name="パス 348" d="M1552.316,545.78a1.227,1.227,0,1,0,1.227,1.227A1.227,1.227,0,0,0,1552.316,545.78Z" transform="translate(-1542.314 -516.66)" fill="#fff"/>
  <path id="パス_349" data-name="パス 349" d="M1554.356,545.78a1.227,1.227,0,1,0,1.227,1.227A1.227,1.227,0,0,0,1554.356,545.78Z" transform="translate(-1540.04 -516.66)" fill="#fff"/>
  <path id="パス_350" data-name="パス 350" d="M1550.276,547.55a1.227,1.227,0,1,0,1.227,1.205,1.226,1.226,0,0,0-1.227-1.205Z" transform="translate(-1544.588 -514.687)" fill="#fff"/>
  <path id="パス_351" data-name="パス 351" d="M1552.232,547.556a1.227,1.227,0,1,0,1.195.557A1.226,1.226,0,0,0,1552.232,547.556Z" transform="translate(-1542.229 -514.692)" fill="#fff"/>
  <path id="パス_352" data-name="パス 352" d="M1554.356,547.55a1.227,1.227,0,1,0,1.227,1.205A1.226,1.226,0,0,0,1554.356,547.55Z" transform="translate(-1540.04 -514.687)" fill="#fff"/>
  <path id="パス_353" data-name="パス 353" d="M1558.1,546.64a1.924,1.924,0,1,0,1.925,1.924,1.9,1.9,0,0,0-1.925-1.924Z" transform="translate(-1536.64 -515.701)" fill="#333"/>
  <path id="パス_354" data-name="パス 354" d="M1558.494,551.609a2.644,2.644,0,1,1,1.883-.767,2.664,2.664,0,0,1-1.883.767Zm0-3.828a1.174,1.174,0,1,1,0,.021Z" transform="translate(-1537.03 -516.102)" fill="#fff"/>
  <line id="線_105" data-name="線 105" y1="5.837" transform="translate(19.963 22.226)" fill="#333"/>
  <path id="パス_355" data-name="パス 355" d="M1556.77,549.466a.74.74,0,0,1-.74-.74V542.91a.74.74,0,0,1,1.48,0v5.816a.739.739,0,0,1-.74.74Z" transform="translate(-1536.807 -520.684)" fill="#fff"/>
  <line id="線_106" data-name="線 106" y1="5.837" transform="translate(22.987 22.226)" fill="#333"/>
  <path id="パス_356" data-name="パス 356" d="M1558.2,549.466a.719.719,0,0,1-.74-.74V542.91a.719.719,0,0,1,.74-.74.74.74,0,0,1,.74.74v5.816a.741.741,0,0,1-.74.74Z" transform="translate(-1535.213 -520.684)" fill="#fff"/>
  <path id="パス_357" data-name="パス 357" d="M1553.684,542.89a3.595,3.595,0,1,1,2.555-1.045,3.6,3.6,0,0,1-2.555,1.045Zm0-5.075a1.48,1.48,0,1,0,1.48,1.48,1.48,1.48,0,0,0-1.48-1.48Z" transform="translate(-1543.406 -527.897)" fill="#333"/>
  <line id="線_107" data-name="線 107" x2="7.634" transform="translate(13.175 11.399)" fill="#333"/>
  <path id="パス_358" data-name="パス 358" d="M1561.195,538.53h-7.634a.74.74,0,0,1-.74-.74.719.719,0,0,1,.74-.74h7.634a.74.74,0,1,1,0,1.48Z" transform="translate(-1540.385 -526.392)" fill="#333"/>
  <line id="線_108" data-name="線 108" y1="2.072" transform="translate(16.833 9.241)" fill="#333"/>
  <path id="パス_359" data-name="パス 359" d="M1555.28,539.6a.74.74,0,0,1-.74-.74V536.74a.74.74,0,0,1,.74-.74.719.719,0,0,1,.74.74v2.115A.74.74,0,0,1,1555.28,539.6Z" transform="translate(-1538.468 -527.562)" fill="#333"/>
  <line id="線_109" data-name="線 109" y1="2.072" transform="translate(19.392 9.241)" fill="#333"/>
  <path id="パス_360" data-name="パス 360" d="M1556.5,539.595a.74.74,0,0,1-.74-.74V536.74a.74.74,0,0,1,1.48,0v2.115a.74.74,0,0,1-.74.74Z" transform="translate(-1537.108 -527.562)" fill="#333"/>
</svg>
