<svg xmlns="http://www.w3.org/2000/svg" width="36.108" height="40.512" viewBox="0 0 36.108 40.512">
  <g id="グループ_394" data-name="グループ 394" transform="translate(-1159.912 -572.267)">
    <path id="パス_333" data-name="パス 333" d="M1161.333,572.267a1.105,1.105,0,1,0,0,2.206h32.477a1.105,1.105,0,1,0,0-2.206Z" transform="translate(0.166 0)" fill="#333"/>
    <path id="パス_334" data-name="パス 334" d="M1188.906,592.386a1.105,1.105,0,1,1,0,2.206h-25.5a1.105,1.105,0,1,1,0-2.206Z" transform="translate(1.581 13.738)" fill="#333"/>
    <rect id="長方形_157" data-name="長方形 157" width="13.291" height="13.291" rx="1.5" transform="translate(1178.789 591.144)" fill="#333"/>
    <path id="パス_335" data-name="パス 335" d="M1173.233,589.3a1.33,1.33,0,0,1,0-2.659A1.33,1.33,0,0,1,1173.233,589.3Z" transform="translate(8.214 9.816)" fill="#fff"/>
    <rect id="長方形_158" data-name="長方形 158" width="13.291" height="13.291" rx="1.5" transform="translate(1178.789 576.163)" fill="#333"/>
    <path id="パス_336" data-name="パス 336" d="M1173.233,580.4a1.329,1.329,0,0,1,0-2.657A1.329,1.329,0,0,1,1173.233,580.4Z" transform="translate(8.214 3.738)" fill="#fff"/>
    <rect id="長方形_159" data-name="長方形 159" width="13.291" height="13.291" rx="1.5" transform="translate(1163.808 591.144)" fill="#333"/>
    <path id="パス_337" data-name="パス 337" d="M1164.331,589.3a1.33,1.33,0,0,1,0-2.659A1.33,1.33,0,0,1,1164.331,589.3Z" transform="translate(2.135 9.816)" fill="#fff"/>
    <rect id="長方形_160" data-name="長方形 160" width="13.291" height="13.291" rx="1.5" transform="translate(1163.808 576.163)" fill="#333"/>
    <path id="パス_338" data-name="パス 338" d="M1164.331,580.4a1.329,1.329,0,0,1,0-2.657A1.329,1.329,0,0,1,1164.331,580.4Z" transform="translate(2.135 3.738)" fill="#fff"/>
    <path id="パス_339" data-name="パス 339" d="M1162.118,575.76a1.106,1.106,0,1,0-2.206,0v34.26a1.106,1.106,0,1,0,2.206,0Z" transform="translate(0 1.581)" fill="#333"/>
    <path id="パス_340" data-name="パス 340" d="M1182.264,575.76a1.105,1.105,0,1,0-2.206,0V609.8a1.105,1.105,0,1,0,2.206,0Z" transform="translate(13.756 1.581)" fill="#333"/>
  </g>
</svg>
