<svg xmlns="http://www.w3.org/2000/svg" width="38.078" height="44.955" viewBox="0 0 38.078 44.955">
  <g id="グループ_353" data-name="グループ 353" transform="translate(-1002.96 -575.591)">
    <g id="グループ_351" data-name="グループ 351" transform="translate(1013.718 575.591)">
      <path id="パス_261" data-name="パス 261" d="M1011.438,575.846l-2.635,3.384a.659.659,0,0,0,.521,1.064h5.266a.659.659,0,0,0,.52-1.064l-2.635-3.384A.656.656,0,0,0,1011.438,575.846Z" transform="translate(-1008.664 -575.591)" fill="#333"/>
      <path id="パス_262" data-name="パス 262" d="M1014.089,576.647l2.641,3.395a.654.654,0,0,0,1.034,0l2.642-3.395a.655.655,0,0,0-.517-1.056H1014.6A.654.654,0,0,0,1014.089,576.647Z" transform="translate(-1003.981 -575.591)" fill="#333"/>
    </g>
    <rect id="長方形_138" data-name="長方形 138" width="38.078" height="38.078" rx="1.768" transform="translate(1002.96 582.468)" fill="#333"/>
    <path id="長方形_139" data-name="長方形 139" d="M.2,0H30.185a.2.2,0,0,1,.2.2V30.185a.2.2,0,0,1-.2.2H.2a.2.2,0,0,1-.2-.2V.2A.2.2,0,0,1,.2,0Z" transform="translate(1006.808 586.316)" fill="#fff"/>
    <g id="グループ_352" data-name="グループ 352" transform="translate(1009.52 588.254)">
      <path id="パス_263" data-name="パス 263" d="M1010.679,582.305a2.419,2.419,0,1,0,2.42,2.418,2.42,2.42,0,0,0-2.42-2.418Z" transform="translate(-1004.821 -582.305)" fill="#333"/>
      <path id="パス_264" data-name="パス 264" d="M1017.7,582.305a2.419,2.419,0,1,0,2.42,2.418,2.42,2.42,0,0,0-2.42-2.418Z" transform="translate(-998.601 -582.305)" fill="#333"/>
      <path id="パス_265" data-name="パス 265" d="M1008.577,584.99c-.479,0-.854.187-.887.447l-1.249,10.072c-.038.3.236.624.83.662.43.028,1.113-.026,1.181-.432l.89-6.5v16.139a1.162,1.162,0,0,0,1.258,1.049h.245a1.17,1.17,0,0,0,1.267-1.049v-9.343h.362v9.351a1.172,1.172,0,0,0,1.27,1.049h.24a1.17,1.17,0,0,0,1.267-1.049V589.277l.89,6.469c.1.522.779.458,1.175.432.6-.038.885-.355.836-.662l-1.252-10.073c-.032-.258-.4-.438-.879-.447h-7.41Z" transform="translate(-1006.438 -579.926)" fill="#333"/>
      <path id="パス_266" data-name="パス 266" d="M1015.6,584.99c-.477,0-.854.187-.887.447l-1.249,10.072c-.038.3.238.624.832.662.43.028,1.111-.026,1.179-.432l.89-6.5v16.139a1.163,1.163,0,0,0,1.26,1.049h.243a1.172,1.172,0,0,0,1.269-1.049v-9.343h.362v9.351a1.17,1.17,0,0,0,1.267,1.049h.24a1.172,1.172,0,0,0,1.269-1.049V589.277l.89,6.469c.1.522.779.458,1.175.432.594-.038.883-.355.835-.662l-1.254-10.073c-.032-.258-.4-.438-.877-.447h-7.412Z" transform="translate(-1000.219 -579.926)" fill="#333"/>
    </g>
  </g>
</svg>
